<?xml version="1.0"?>
<svg width="410" height="70" xmlns="http://www.w3.org/2000/svg" xmlns:svg="http://www.w3.org/2000/svg">
<defs>
    <style type="text/css"><![CDATA[
       path,rect {
	stroke: #666;
	stroke-width:0.5px;
        fill: white;
       }
    ]]></style>
  </defs>
 <g>
  <title>RackTables Logo</title>
  <path id="R" d="m8.191743,5.87323l0,58l6,0l1.5,0l5.999997,0l0,-24.093811l13.656256,0l1.531246,0c4.853931,0.000732 8.044052,0.565613 9.562504,1.656311c1.518375,1.065979 2.413647,4.056396 2.6875,7.75c0,0 1.449936,14.702515 1.468746,14.6875l8.21875,0c0,0 -1.337669,-5.319458 -1.5625,-7.90625l-0.6875,-9c-0.273849,-3.470642 -0.904259,-6.505066 -1.875,-7.84375c-0.945938,-1.363403 -2.547356,-2.348999 -4.8125,-2.968811c2.812759,-1.263489 4.861824,-2.948792 6.15625,-5.031189c1.319237,-2.082275 1.999947,-6.333313 2,-9.531189c-0.000053,-4.536987 -1.538422,-9.115845 -4.625,-11.718811c-3.06176,-2.602844 -7.279594,-3.906188 -12.65625,-3.90625c-0.049805,0.000062 -0.472008,-0.006348 -1.21875,-0.03125c-0.746777,-0.0495 -1.459297,-0.062438 -2.156246,-0.0625l-21.687503,0l-1.5,0l-6,0zm2,2l6,0l0,6l-6,0l0,-6zm11.499997,4.5l14.375002,0l1.53125,0c4.45565,0.000061 7.658493,0.712036 9.625,2.125c1.991333,1.388245 2.999969,4.613647 3,7.6875c-0.000031,3.445801 -1.084427,7.550293 -3.25,9.0625c-2.165649,1.487427 -5.80341,2.218811 -10.90625,2.218811l-14.375002,0l0,-21.093811zm-11.499997,5.5l6,0l0,6l-6,0l0,-6zm0,10l6,0l0,6l-6,0l0,-6zm0,8l6,0l0,6l-6,0l0,-6zm0,10l6,0l0,6l-6,0l0,-6zm0,10l6,0l0,6l-6,0l0,-6z"/>
  <path fill="#000000" id="a1" d="m83.910492,21.49823c-5.028214,0.000122 -8.993889,1.1698 -11.90625,3.5c-2.912369,2.305481 -4.375,5.433472 -4.375,9.375l0,0.4375l6.34375,0c-0.000023,-2.429382 0.819511,-4.260498 2.4375,-5.5c1.64286,-1.239502 4.07016,-1.843689 7.28125,-1.843689c3.136383,0 5.463028,0.521301 7.03125,1.562378c1.568169,1.016418 2.374977,2.536316 2.375,4.593811c-0.000023,2.950012 -2.73616,4.704712 -8.1875,5.25c-1.319298,0.124023 -2.353363,0.20697 -3.125,0.281189c-5.725182,0.619812 -9.81694,1.960815 -12.28125,3.968811c-2.464317,1.983215 -3.71875,4.927002 -3.71875,8.84375c0,3.718506 1.153793,6.611694 3.46875,8.71875c2.339851,2.107056 5.593033,3.1875 9.75,3.1875c2.787903,0 5.397949,-0.565552 7.8125,-1.65625c2.414513,-1.115601 4.665413,-2.762451 6.78125,-4.96875c-0.000023,2.107178 0.560966,3.664673 1.65625,4.65625c1.095222,0.991699 2.822723,1.46875 5.1875,1.46875c0.572479,0 1.158913,-0.057007 1.78125,-0.15625c0.622261,-0.074219 1.32206,-0.214478 2.09375,-0.4375l0,-5.15625c-0.348534,0.074341 -0.663719,0.137939 -0.9375,0.1875c-0.273857,0.02478 -0.494759,0.03125 -0.71875,0.03125c-1.020622,0 -1.764374,-0.254272 -2.1875,-0.75c-0.398308,-0.520508 -0.593788,-1.626709 -0.59375,-3.3125l0,-19.937439c-0.000038,-4.239136 -1.286247,-7.329285 -3.875,-9.312622c-2.588799,-2.007813 -6.617523,-3.031067 -12.09375,-3.031189zm9.1875,20.875l0,5.9375c-0.000023,2.82605 -1.21685,5.15918 -3.65625,6.96875c-2.439438,1.809692 -5.547447,2.718628 -9.28125,2.71875c-2.364761,0 -4.211983,-0.565552 -5.53125,-1.65625c-1.319283,-1.090698 -1.96875,-2.597778 -1.96875,-4.53125c0,-1.958374 0.560997,-3.452271 1.65625,-4.46875c1.120132,-1.041138 2.986427,-1.772461 5.625,-2.21875c0.796539,-0.123901 2.000633,-0.263916 3.59375,-0.4375c4.430771,-0.570129 7.620903,-1.345703 9.5625,-2.3125z"/>
  <path fill="#000000" id="c" d="m142.000046,36.046326l-6.646179,0c-0.149368,-2.701965 -1.057938,-4.796814 -2.725677,-6.28418c-1.642899,-1.487305 -3.895615,-2.231018 -6.758194,-2.23114c-3.360443,0.000122 -5.949219,1.313904 -7.766327,3.94165c-1.817123,2.602966 -2.725677,6.30896 -2.725677,11.118164c0,4.958069 0.883659,8.726013 2.651001,11.304138c1.792221,2.578125 4.405884,3.867188 7.841003,3.867188c2.688324,0 4.891266,-0.830444 6.608841,-2.491455c1.717529,-1.660889 2.775452,-3.978638 3.173752,-6.953491l6.42215,0c-0.298752,4.858887 -1.94162,8.664063 -4.928635,11.415771c-2.987076,2.751587 -6.982254,4.127441 -11.985535,4.127441c-5.227341,0 -9.322083,-1.871582 -12.284233,-5.614868c-2.962166,-3.768066 -4.44323,-8.986328 -4.44323,-15.654724c0,-6.519714 1.555748,-11.651062 4.667259,-15.394409c3.111496,-3.743164 7.36805,-5.614868 12.76963,-5.614868c4.779251,0 8.625076,1.326294 11.537476,3.978699c2.937225,2.627808 4.468094,6.123108 4.592575,10.486084"/>
  <path fill="#000000" id="k" d="m148.191742,7.860413l6.720856,0l0,32.610901l17.063507,-17.662659l8.326401,0l-14.300491,14.539185l14.151138,25.285522l-7.504944,0l-11.164108,-20.488708l-6.571503,6.618835l0,13.869873l-6.720856,0l0,-54.772949"/>
  <path fill="#000000" id="a2" d="m237.722992,21.49823c-5.028198,0.000122 -8.993896,1.1698 -11.90625,3.5c-2.912369,2.305481 -4.375,5.433472 -4.375,9.375l0,0.4375l6.375,0c-0.000015,-2.429382 0.788254,-4.260498 2.40625,-5.5c1.642868,-1.239502 4.07016,-1.843689 7.28125,-1.843689c3.136383,0 5.494278,0.521301 7.0625,1.562378c1.568176,1.016418 2.34375,2.536316 2.34375,4.593811c0,2.950012 -2.70491,4.704712 -8.15625,5.25c-1.319305,0.124023 -2.384613,0.20697 -3.15625,0.281189c-5.725174,0.619812 -9.816925,1.960815 -12.28125,3.968811c-2.46431,1.983215 -3.6875,4.927002 -3.6875,8.84375c0,3.718506 1.153763,6.611694 3.46875,8.71875c2.339844,2.107056 5.593018,3.1875 9.75,3.1875c2.787903,0 5.397949,-0.565552 7.8125,-1.65625c2.414505,-1.115601 4.665405,-2.762451 6.78125,-4.96875c-0.000031,2.107178 0.560974,3.664673 1.65625,4.65625c1.095215,0.991699 2.822723,1.46875 5.1875,1.46875c0.572479,0 1.158905,-0.057007 1.78125,-0.15625c0.622253,-0.074219 1.322083,-0.214478 2.09375,-0.4375l0,-5.15625c-0.348541,0.074341 -0.663727,0.137939 -0.9375,0.1875c-0.273865,0.02478 -0.526001,0.03125 -0.75,0.03125c-1.02063,0 -1.733124,-0.254272 -2.15625,-0.75c-0.398315,-0.520508 -0.593781,-1.626709 -0.59375,-3.3125l0,-19.937439c-0.000031,-4.239136 -1.286255,-7.329285 -3.875,-9.312622c-2.588806,-2.007813 -6.648773,-3.031067 -12.125,-3.031189zm9.1875,20.875l0,5.9375c0,2.82605 -1.216827,5.15918 -3.65625,6.96875c-2.439438,1.809692 -5.516205,2.718628 -9.25,2.71875c-2.364761,0 -4.21199,-0.565552 -5.53125,-1.65625c-1.319275,-1.090698 -1.96875,-2.597778 -1.96875,-4.53125c0,-1.958374 0.529739,-3.452271 1.625,-4.46875c1.120132,-1.041138 3.017685,-1.772461 5.65625,-2.21875c0.796539,-0.123901 1.969391,-0.263916 3.5625,-0.4375c4.430771,-0.570129 7.620911,-1.345703 9.5625,-2.3125z"/>
  <path fill="#000000" id="b" d="m264.191742,7.87323l0,54.75l6.5,0l0,-4.5c1.518402,1.983154 3.233185,3.457764 5.125,4.375c1.916656,0.917358 4.148468,1.375 6.6875,1.375c5.003265,0 8.975311,-1.888062 11.9375,-5.65625c2.987,-3.792725 4.468719,-8.92981 4.46875,-15.374939c-0.000031,-6.519714 -1.48175,-11.682434 -4.46875,-15.5c-2.987061,-3.842407 -6.959106,-5.750122 -11.9375,-5.75c-2.464325,0 -4.696167,0.521301 -6.6875,1.562378c-1.991394,1.016602 -3.706177,2.523315 -5.125,4.531311l0,-19.8125l-6.5,0zm17.4375,19.656189c3.360413,0.000183 5.983185,1.379883 7.875,4.156311c1.891785,2.751709 2.843719,6.642273 2.84375,11.625c-0.000031,4.511719 -0.964691,8.059814 -2.90625,10.6875c-1.941589,2.602905 -4.564362,3.906372 -7.875,3.90625c-3.410217,0 -6.070587,-1.322754 -7.9375,-4c-1.866913,-2.702026 -2.78125,-6.535645 -2.78125,-11.46875c0,-4.933228 0.895264,-8.652527 2.6875,-11.156311c1.817108,-2.503601 4.509277,-3.749817 8.09375,-3.75z"/>
  <path fill="#000000" id="l" d="m306.191742,7.860413l6.870209,0l0,54.772949l-6.870209,0l0,-54.772949"/>
  <path fill="#000000" id="e" d="m338.910492,21.592041c-5.600739,0 -10.020386,1.888184 -13.28125,5.656189c-3.260864,3.743225 -4.90625,8.861816 -4.90625,15.406189c0,6.594055 1.60144,11.794617 4.8125,15.562561c3.21106,3.768188 7.605286,5.65625 13.15625,5.65625c4.928589,0 8.963684,-1.239746 12.125,-3.71875c3.161255,-2.503662 5.128204,-5.962402 5.875,-10.375l-6.625,0c-0.522766,2.578247 -1.682922,4.555786 -3.5,5.96875c-1.817139,1.388306 -4.124725,2.09375 -6.9375,2.09375c-3.684052,0 -6.565338,-1.169678 -8.65625,-3.5c-2.090942,-2.3302 -3.168945,-5.585205 -3.21875,-9.749939l29.46875,0c0.024872,-0.347107 0.031219,-0.697083 0.03125,-1.093811c0.024872,-0.421387 0.031219,-1.044006 0.03125,-1.8125c-0.000031,-6.420593 -1.595093,-11.379578 -4.78125,-14.875c-3.186218,-3.4953 -7.719269,-5.218811 -13.59375,-5.218689zm0.125,5.875c3.584442,0 6.333282,0.992065 8.25,3c1.941559,1.983215 2.918945,4.856873 2.96875,8.625l-22.5,0c0.273804,-3.743286 1.370911,-6.617004 3.3125,-8.625c1.941559,-2.007996 4.608307,-3 7.96875,-3z"/>
  <path fill="#000000" id="s" d="m394.361786,33.926819l-6.608826,0c-0.099609,-2.082275 -0.958374,-3.705994 -2.576324,-4.871216c-1.618011,-1.1651 -3.78363,-1.747559 -6.496857,-1.747681c-2.763031,0.000122 -4.866394,0.483521 -6.31012,1.450195c-1.418854,0.942139 -2.128265,2.330322 -2.128265,4.164734c0,1.264282 0.435608,2.255859 1.306824,2.974792c0.871216,0.694092 2.551422,1.326172 5.040649,1.896362l6.608826,1.524536c4.629913,1.090759 7.828552,2.479004 9.595886,4.164673c1.792206,1.661011 2.688324,3.97876 2.688354,6.953491c-0.000031,4.263916 -1.456207,7.573364 -4.368561,9.928345c-2.912384,2.330322 -7.056915,3.495361 -12.433594,3.495361c-5.177551,0 -9.172729,-1.214722 -11.985504,-3.644043c-2.787933,-2.454224 -4.231659,-5.961914 -4.331238,-10.523315l6.608856,0c0.22403,2.726929 1.194824,4.784424 2.912354,6.172729c1.71756,1.363403 4.156982,2.045166 7.318298,2.045044c2.912354,0.000122 5.214844,-0.570068 6.907532,-1.710449c1.717529,-1.140381 2.576294,-2.677246 2.576324,-4.61084c-0.000031,-1.462646 -0.398285,-2.578125 -1.194824,-3.34668c-0.79657,-0.768433 -2.464325,-1.450073 -5.003296,-2.045166l-7.579651,-1.933533c-4.256531,-1.041138 -7.218689,-2.379822 -8.886444,-4.01593c-1.667786,-1.636108 -2.501678,-3.892029 -2.501678,-6.767578c0,-3.718506 1.331757,-6.631226 3.995209,-8.738403c2.688324,-2.107117 6.409698,-3.160706 11.164063,-3.160706c4.754395,0 8.550415,1.115601 11.388123,3.346558c2.862579,2.20636 4.293854,5.156311 4.293884,8.849915l0,0.148804"/>
  <rect stroke-linecap="square" y="5.860411" x="200.191743" height="8" width="8" id="rect4252"/>
  <rect fill="#000000" stroke-linecap="square" y="15.860411" x="200.191743" height="8" width="8" id="rect4262"/>
  <rect fill="#000000" stroke-linecap="square" y="25.860431" x="200.191743" height="8" width="8" id="rect4264"/>
  <rect fill="#000000" stroke-linecap="square" y="35.860431" x="200.191743" height="8" width="8" id="rect4266"/>
  <rect fill="#000000" stroke-linecap="square" y="45.860431" x="200.191743" height="8" width="8" id="rect4268"/>
  <rect fill="#000000" stroke-linecap="square" y="55.860431" x="200.191743" height="8" width="8" id="rect4270"/>
  <rect fill="#000000" stroke-linecap="square" x="220.191743" y="5.860411" height="8" width="8" id="rect4292"/>
  <rect fill="#000000" stroke-linecap="square" x="210.191743" y="5.860411" height="8" width="8" id="rect4294"/>
  <rect fill="#000000" stroke-linecap="square" x="190.191743" y="5.860411" height="8" width="8" id="rect4298"/>
  <rect fill="#000000" stroke-linecap="square" x="180.191743" y="5.860411" height="8" width="8" id="rect4300"/>
 </g>
</svg>
