<?xml version="1.0" encoding="UTF-8" standalone="no"?>
<!-- Created with Inkscape (http://www.inkscape.org/) -->
<svg
   xmlns:dc="http://purl.org/dc/elements/1.1/"
   xmlns:cc="http://web.resource.org/cc/"
   xmlns:rdf="http://www.w3.org/1999/02/22-rdf-syntax-ns#"
   xmlns:svg="http://www.w3.org/2000/svg"
   xmlns="http://www.w3.org/2000/svg"
   xmlns:sodipodi="http://sodipodi.sourceforge.net/DTD/sodipodi-0.dtd"
   xmlns:inkscape="http://www.inkscape.org/namespaces/inkscape"
   width="744.09448819"
   height="1052.3622047"
   id="svg2"
   sodipodi:version="0.32"
   inkscape:version="0.45.1"
   sodipodi:docbase="/home/dyeldandi/svn/temporal.1/pix"
   sodipodi:docname="defaultlogo_inverse.svg"
   inkscape:output_extension="org.inkscape.output.svg.inkscape"
   inkscape:export-filename="/home/dyeldandi/svn/temporal/pix/defaultlogo.png"
   inkscape:export-xdpi="45"
   inkscape:export-ydpi="45">
  <defs
     id="defs4" />
  <sodipodi:namedview
     id="base"
     pagecolor="#ffffff"
     bordercolor="#666666"
     borderopacity="1.0"
     gridtolerance="10000"
     guidetolerance="10"
     objecttolerance="10"
     inkscape:pageopacity="0.0"
     inkscape:pageshadow="2"
     inkscape:zoom="3.0952381"
     inkscape:cx="210"
     inkscape:cy="40"
     inkscape:document-units="px"
     inkscape:current-layer="layer1"
     inkscape:window-width="1390"
     inkscape:window-height="972"
     inkscape:window-x="0"
     inkscape:window-y="25"
     showguides="true"
     inkscape:guide-bbox="true" />
  <metadata
     id="metadata7">
    <rdf:RDF>
      <cc:Work
         rdf:about="">
        <dc:format>image/svg+xml</dc:format>
        <dc:type
           rdf:resource="http://purl.org/dc/dcmitype/StillImage" />
      </cc:Work>
    </rdf:RDF>
  </metadata>
  <g
     inkscape:label="Layer 1"
     inkscape:groupmode="layer"
     id="layer1">
    <rect
       style="opacity:1;fill:none;fill-opacity:1;fill-rule:nonzero;stroke:none;stroke-width:1;stroke-linecap:square;stroke-linejoin:miter;stroke-miterlimit:4;stroke-dasharray:none;stroke-dashoffset:0;stroke-opacity:1"
       id="rect5312"
       width="420"
       height="80"
       x="0"
       y="972.36218"
       inkscape:export-filename="/home/dyeldandi/svn/temporal.1/pix/rect4300.png"
       inkscape:export-xdpi="22.5"
       inkscape:export-ydpi="22.5" />
    <path
       style="font-size:32px;font-style:normal;font-weight:normal;fill:#000000;fill-opacity:1;stroke:none;stroke-width:1pt;stroke-linecap:butt;stroke-linejoin:miter;stroke-opacity:1;font-family:Swis721 BT"
       d="M 16 984.375 L 16 1042.375 L 22 1042.375 L 23.5 1042.375 L 29.5 1042.375 L 29.5 1018.2812 L 43.15625 1018.2812 L 44.6875 1018.2812 C 49.541429 1018.2819 52.731551 1018.8468 54.25 1019.9375 C 55.768376 1021.0035 56.663646 1023.9939 56.9375 1027.6875 C 56.9375 1027.6875 58.387435 1042.39 58.40625 1042.375 L 66.625 1042.375 C 66.625002 1042.375 65.28733 1037.0556 65.0625 1034.4688 L 64.375 1025.4688 C 64.101147 1021.9981 63.470741 1018.9637 62.5 1017.625 C 61.554061 1016.2616 59.952637 1015.276 57.6875 1014.6562 C 60.50026 1013.3927 62.549319 1011.7074 63.84375 1009.625 C 65.162986 1007.5427 65.843702 1003.2917 65.84375 1000.0938 C 65.843702 995.55684 64.305326 990.97798 61.21875 988.375 C 58.15699 985.77214 53.93915 984.46879 48.5625 984.46875 C 48.512688 984.46881 48.090488 984.46238 47.34375 984.4375 C 46.596964 984.38798 45.884452 984.37506 45.1875 984.375 L 23.5 984.375 L 22 984.375 L 16 984.375 z M 18 986.375 L 24 986.375 L 24 992.375 L 18 992.375 L 18 986.375 z M 29.5 990.875 L 43.875 990.875 L 45.40625 990.875 C 49.861898 990.87504 53.064744 991.58703 55.03125 993 C 57.022583 994.38827 58.031216 997.61365 58.03125 1000.6875 C 58.031214 1004.1333 56.946824 1008.2378 54.78125 1009.75 C 52.615604 1011.2374 48.977846 1011.9688 43.875 1011.9688 L 29.5 1011.9688 L 29.5 990.875 z M 18 996.375 L 24 996.375 L 24 1002.375 L 18 1002.375 L 18 996.375 z M 18 1006.375 L 24 1006.375 L 24 1012.375 L 18 1012.375 L 18 1006.375 z M 18 1014.375 L 24 1014.375 L 24 1020.375 L 18 1020.375 L 18 1014.375 z M 18 1024.375 L 24 1024.375 L 24 1030.375 L 18 1030.375 L 18 1024.375 z M 18 1034.375 L 24 1034.375 L 24 1040.375 L 18 1040.375 L 18 1034.375 z "
       id="path10296"
       inkscape:export-filename="/home/dyeldandi/svn/temporal.1/pix/rect4300.png"
       inkscape:export-xdpi="22.5"
       inkscape:export-ydpi="22.5" />
    <path
       style="font-size:32px;font-style:normal;font-weight:normal;fill:#000000;fill-opacity:1;stroke:none;stroke-width:1pt;stroke-linecap:butt;stroke-linejoin:miter;stroke-opacity:1;font-family:Swis721 BT"
       d="M 91.71875 1000 C 86.690545 1000.0001 82.724862 1001.1698 79.8125 1003.5 C 76.900128 1005.8055 75.437497 1008.9335 75.4375 1012.875 L 75.4375 1013.3125 L 81.78125 1013.3125 C 81.781238 1010.8831 82.600761 1009.052 84.21875 1007.8125 C 85.861614 1006.573 88.28891 1005.9688 91.5 1005.9688 C 94.636377 1005.9688 96.963025 1006.4901 98.53125 1007.5312 C 100.09942 1008.5476 100.90623 1010.0675 100.90625 1012.125 C 100.90623 1015.075 98.170089 1016.8297 92.71875 1017.375 C 91.399454 1017.499 90.365386 1017.582 89.59375 1017.6562 C 83.868571 1018.276 79.776812 1019.617 77.3125 1021.625 C 74.848186 1023.6082 73.593747 1026.552 73.59375 1030.4688 C 73.59375 1034.1872 74.747536 1037.0804 77.0625 1039.1875 C 79.40235 1041.2946 82.655524 1042.375 86.8125 1042.375 C 89.600395 1042.375 92.21045 1041.8095 94.625 1040.7188 C 97.039502 1039.6031 99.290414 1037.9563 101.40625 1035.75 C 101.40623 1037.8572 101.96722 1039.4147 103.0625 1040.4062 C 104.15772 1041.3979 105.88522 1041.875 108.25 1041.875 C 108.82248 1041.875 109.40891 1041.818 110.03125 1041.7188 C 110.65351 1041.6445 111.35331 1041.5043 112.125 1041.2812 L 112.125 1036.125 C 111.77647 1036.1993 111.46128 1036.2629 111.1875 1036.3125 C 110.91364 1036.3373 110.69274 1036.3438 110.46875 1036.3438 C 109.44813 1036.3438 108.70438 1036.0895 108.28125 1035.5938 C 107.88294 1035.0732 107.68746 1033.967 107.6875 1032.2812 L 107.6875 1012.3438 C 107.68746 1008.1047 106.40125 1005.0145 103.8125 1003.0312 C 101.2237 1001.0234 97.194974 1000.0001 91.71875 1000 z M 100.90625 1020.875 L 100.90625 1026.8125 C 100.90623 1029.6386 99.689399 1031.9717 97.25 1033.7812 C 94.810561 1035.591 91.702546 1036.4999 87.96875 1036.5 C 85.603988 1036.5 83.75677 1035.9344 82.4375 1034.8438 C 81.118217 1033.7531 80.468749 1032.246 80.46875 1030.3125 C 80.46875 1028.3541 81.029744 1026.8602 82.125 1025.8438 C 83.245131 1024.8026 85.111431 1024.0713 87.75 1023.625 C 88.546539 1023.5011 89.750637 1023.3611 91.34375 1023.1875 C 95.774522 1022.6174 98.964649 1021.8418 100.90625 1020.875 z "
       id="path10292"
       inkscape:export-filename="/home/dyeldandi/svn/temporal.1/pix/rect4300.png"
       inkscape:export-xdpi="22.5"
       inkscape:export-ydpi="22.5" />
    <path
       style="font-size:32px;font-style:normal;font-weight:normal;fill:#000000;fill-opacity:1;stroke:none;stroke-width:1pt;stroke-linecap:butt;stroke-linejoin:miter;stroke-opacity:1;font-family:Swis721 BT"
       d="M 149.80831,1014.5481 L 143.16213,1014.5481 C 143.01275,1011.8461 142.10419,1009.7513 140.43645,1008.2639 C 138.79355,1006.7766 136.54083,1006.0329 133.67825,1006.0328 C 130.31781,1006.0329 127.72903,1007.3467 125.91193,1009.9744 C 124.0948,1012.5774 123.18625,1016.2834 123.18625,1021.0926 C 123.18625,1026.0506 124.06991,1029.8186 125.83725,1032.3967 C 127.62947,1034.9749 130.24314,1036.2639 133.67825,1036.2639 C 136.36657,1036.2639 138.56952,1035.4335 140.2871,1033.7725 C 142.00463,1032.1116 143.06254,1029.7938 143.46084,1026.819 L 149.88299,1026.819 C 149.58425,1031.6778 147.94137,1035.483 144.95436,1038.2347 C 141.96729,1040.9863 137.97211,1042.3622 132.96883,1042.3622 C 127.74148,1042.3622 123.64674,1040.4906 120.68459,1036.7473 C 117.72243,1032.9793 116.24136,1027.761 116.24136,1021.0926 C 116.24136,1014.5729 117.79711,1009.4415 120.90862,1005.6982 C 124.02012,1001.955 128.27667,1000.0833 133.67825,1000.0833 C 138.45751,1000.0833 142.30333,1001.4096 145.21573,1004.062 C 148.15296,1006.6898 149.68382,1010.1851 149.80831,1014.5481"
       id="path10290"
       inkscape:export-filename="/home/dyeldandi/svn/temporal.1/pix/rect4300.png"
       inkscape:export-xdpi="22.5"
       inkscape:export-ydpi="22.5" />
    <path
       style="font-size:32px;font-style:normal;font-weight:normal;fill:#000000;fill-opacity:1;stroke:none;stroke-width:1pt;stroke-linecap:butt;stroke-linejoin:miter;stroke-opacity:1;font-family:Swis721 BT"
       d="M 156,986.36218 L 162.72086,986.36218 L 162.72086,1018.9731 L 179.78437,1001.3104 L 188.11077,1001.3104 L 173.81027,1015.8496 L 187.96141,1041.1351 L 180.45646,1041.1351 L 169.29236,1020.6464 L 162.72086,1027.2652 L 162.72086,1041.1351 L 156,1041.1351 L 156,986.36218"
       id="path10288"
       inkscape:export-filename="/home/dyeldandi/svn/temporal.1/pix/rect4300.png"
       inkscape:export-xdpi="22.5"
       inkscape:export-ydpi="22.5" />
    <path
       style="font-size:32px;font-style:normal;font-weight:normal;fill:#000000;fill-opacity:1;stroke:none;stroke-width:1pt;stroke-linecap:butt;stroke-linejoin:miter;stroke-opacity:1;font-family:Swis721 BT"
       d="M 245.53125 1000 C 240.50305 1000.0001 236.53736 1001.1698 233.625 1003.5 C 230.71263 1005.8055 229.25 1008.9335 229.25 1012.875 L 229.25 1013.3125 L 235.625 1013.3125 C 235.62498 1010.8831 236.41326 1009.052 238.03125 1007.8125 C 239.67412 1006.573 242.10141 1005.9688 245.3125 1005.9688 C 248.44888 1005.9688 250.80678 1006.4901 252.375 1007.5312 C 253.94318 1008.5476 254.71874 1010.0675 254.71875 1012.125 C 254.71873 1015.075 252.01384 1016.8297 246.5625 1017.375 C 245.2432 1017.499 244.17789 1017.582 243.40625 1017.6562 C 237.68107 1018.276 233.58932 1019.617 231.125 1021.625 C 228.66069 1023.6082 227.4375 1026.552 227.4375 1030.4688 C 227.4375 1034.1872 228.59127 1037.0804 230.90625 1039.1875 C 233.2461 1041.2946 236.49926 1042.375 240.65625 1042.375 C 243.44415 1042.375 246.0542 1041.8095 248.46875 1040.7188 C 250.88326 1039.6031 253.13415 1037.9563 255.25 1035.75 C 255.24997 1037.8572 255.81097 1039.4147 256.90625 1040.4062 C 258.00147 1041.3979 259.72898 1041.875 262.09375 1041.875 C 262.66623 1041.875 263.25265 1041.818 263.875 1041.7188 C 264.49726 1041.6445 265.19708 1041.5043 265.96875 1041.2812 L 265.96875 1036.125 C 265.62022 1036.1993 265.30503 1036.2629 265.03125 1036.3125 C 264.7574 1036.3373 264.50524 1036.3438 264.28125 1036.3438 C 263.26063 1036.3438 262.54814 1036.0895 262.125 1035.5938 C 261.72669 1035.0732 261.53122 1033.967 261.53125 1032.2812 L 261.53125 1012.3438 C 261.53121 1008.1047 260.24499 1005.0145 257.65625 1003.0312 C 255.06744 1001.0234 251.00748 1000.0001 245.53125 1000 z M 254.71875 1020.875 L 254.71875 1026.8125 C 254.71873 1029.6386 253.5019 1031.9717 251.0625 1033.7812 C 248.62306 1035.591 245.5463 1036.4999 241.8125 1036.5 C 239.44774 1036.5 237.60051 1035.9344 236.28125 1034.8438 C 234.96197 1033.7531 234.3125 1032.246 234.3125 1030.3125 C 234.3125 1028.3541 234.84224 1026.8602 235.9375 1025.8438 C 237.05763 1024.8026 238.95519 1024.0713 241.59375 1023.625 C 242.39029 1023.5011 243.56314 1023.3611 245.15625 1023.1875 C 249.58702 1022.6174 252.77716 1021.8418 254.71875 1020.875 z "
       id="path10284"
       inkscape:export-filename="/home/dyeldandi/svn/temporal.1/pix/rect4300.png"
       inkscape:export-xdpi="22.5"
       inkscape:export-ydpi="22.5" />
    <path
       style="font-size:32px;font-style:normal;font-weight:normal;fill:#000000;fill-opacity:1;stroke:none;stroke-width:1pt;stroke-linecap:butt;stroke-linejoin:miter;stroke-opacity:1;font-family:Swis721 BT"
       d="M 272,986.375 L 272,1041.125 L 278.5,1041.125 L 278.5,1036.625 C 280.01841,1038.6081 281.73319,1040.0828 283.625,1041 C 285.54167,1041.9173 287.77348,1042.375 290.3125,1042.375 C 295.31578,1042.375 299.28781,1040.4869 302.25,1036.7188 C 305.23701,1032.926 306.71872,1027.789 306.71875,1021.3438 C 306.71872,1014.8241 305.237,1009.6614 302.25,1005.8438 C 299.26293,1002.0014 295.29088,1000.0937 290.3125,1000.0938 C 287.84817,1000.0938 285.61634,1000.6151 283.625,1001.6562 C 281.63362,1002.6728 279.91883,1004.1795 278.5,1006.1875 L 278.5,986.375 L 272,986.375 z M 289.4375,1006.0312 C 292.7979,1006.0314 295.42067,1007.4111 297.3125,1010.1875 C 299.20427,1012.9392 300.15623,1016.8298 300.15625,1021.8125 C 300.15623,1026.3242 299.19157,1029.8723 297.25,1032.5 C 295.3084,1035.1029 292.68563,1036.4064 289.375,1036.4062 C 285.96477,1036.4063 283.3044,1035.0835 281.4375,1032.4062 C 279.57058,1029.7042 278.65624,1025.8706 278.65625,1020.9375 C 278.65624,1016.0043 279.5515,1012.285 281.34375,1009.7812 C 283.16086,1007.2776 285.85303,1006.0314 289.4375,1006.0312 z "
       id="path10280"
       inkscape:export-filename="/home/dyeldandi/svn/temporal.1/pix/rect4300.png"
       inkscape:export-xdpi="22.5"
       inkscape:export-ydpi="22.5" />
    <path
       style="font-size:32px;font-style:normal;font-weight:normal;fill:#000000;fill-opacity:1;stroke:none;stroke-width:1pt;stroke-linecap:butt;stroke-linejoin:miter;stroke-opacity:1;font-family:Swis721 BT"
       d="M 314,986.36218 L 320.87021,986.36218 L 320.87021,1041.1351 L 314,1041.1351 L 314,986.36218"
       id="path10278"
       inkscape:export-filename="/home/dyeldandi/svn/temporal.1/pix/rect4300.png"
       inkscape:export-xdpi="22.5"
       inkscape:export-ydpi="22.5" />
    <path
       style="font-size:32px;font-style:normal;font-weight:normal;fill:#000000;fill-opacity:1;stroke:none;stroke-width:1pt;stroke-linecap:butt;stroke-linejoin:miter;stroke-opacity:1;font-family:Swis721 BT"
       d="M 346.71875,1000.0938 C 341.11802,1000.0938 336.69837,1001.982 333.4375,1005.75 C 330.17664,1009.4932 328.53126,1014.6118 328.53125,1021.1562 C 328.53125,1027.7503 330.13268,1032.9508 333.34375,1036.7188 C 336.55481,1040.4869 340.94905,1042.375 346.5,1042.375 C 351.4286,1042.375 355.46369,1041.1353 358.625,1038.6562 C 361.78626,1036.1526 363.7532,1032.6939 364.5,1028.2812 L 357.875,1028.2812 C 357.35224,1030.8595 356.19209,1032.837 354.375,1034.25 C 352.55786,1035.6383 350.25028,1036.3438 347.4375,1036.3438 C 343.75345,1036.3438 340.87217,1035.1741 338.78125,1032.8438 C 336.69031,1030.5135 335.61229,1027.2585 335.5625,1023.0938 L 365.03125,1023.0938 C 365.05611,1022.7467 365.06248,1022.3967 365.0625,1022 C 365.08736,1021.5786 365.09372,1020.956 365.09375,1020.1875 C 365.09372,1013.7669 363.49867,1008.8079 360.3125,1005.3125 C 357.12629,1001.8172 352.59324,1000.0937 346.71875,1000.0938 z M 346.84375,1005.9688 C 350.42818,1005.9688 353.17704,1006.9609 355.09375,1008.9688 C 357.03531,1010.952 358.01269,1013.8257 358.0625,1017.5938 L 335.5625,1017.5938 C 335.83631,1013.8505 336.93342,1010.9768 338.875,1008.9688 C 340.81657,1006.9608 343.48331,1005.9688 346.84375,1005.9688 z "
       id="path10276"
       inkscape:export-filename="/home/dyeldandi/svn/temporal.1/pix/rect4300.png"
       inkscape:export-xdpi="22.5"
       inkscape:export-ydpi="22.5" />
    <path
       style="font-size:32px;font-style:normal;font-weight:normal;fill:#000000;fill-opacity:1;stroke:none;stroke-width:1pt;stroke-linecap:butt;stroke-linejoin:miter;stroke-opacity:1;font-family:Swis721 BT"
       d="M 402.17005,1012.4286 L 395.56121,1012.4286 C 395.46162,1010.3463 394.60285,1008.7226 392.98488,1007.5574 C 391.36688,1006.3923 389.20127,1005.8098 386.48805,1005.8097 C 383.72502,1005.8098 381.62165,1006.2932 380.17791,1007.2599 C 378.75905,1008.202 378.04964,1009.5902 378.04964,1011.4246 C 378.04964,1012.6889 378.48525,1013.6805 379.35648,1014.3994 C 380.22769,1015.0935 381.9079,1015.7256 384.39712,1016.2958 L 391.00596,1017.8203 C 395.63586,1018.9111 398.83449,1020.2993 400.60185,1021.985 C 402.39405,1023.646 403.29016,1025.9638 403.2902,1028.9385 C 403.29016,1033.2024 401.83399,1036.5118 398.92164,1038.8668 C 396.00924,1041.1971 391.86471,1042.3622 386.48805,1042.3622 C 381.31049,1042.3622 377.31532,1041.1475 374.50252,1038.7181 C 371.71461,1036.2639 370.27087,1032.7562 370.1713,1028.1948 L 376.78015,1028.1948 C 377.00418,1030.9217 377.97497,1032.9793 379.69252,1034.3675 C 381.41006,1035.7309 383.84949,1036.4127 387.01079,1036.4126 C 389.92315,1036.4127 392.22566,1035.8425 393.91833,1034.7022 C 395.63586,1033.5618 396.49464,1032.0249 396.49466,1030.0913 C 396.49464,1028.6287 396.09637,1027.5132 395.29984,1026.7446 C 394.50327,1025.9762 392.83551,1025.2945 390.29654,1024.6995 L 382.7169,1022.7659 C 378.46035,1021.7248 375.4982,1020.3861 373.83044,1018.75 C 372.16267,1017.1139 371.32878,1014.858 371.32878,1011.9824 C 371.32878,1008.2639 372.66051,1005.3512 375.32396,1003.244 C 378.0123,1001.1369 381.73366,1000.0833 386.48805,1000.0833 C 391.24242,1000.0833 395.03845,1001.1989 397.87617,1003.4299 C 400.73873,1005.6362 402.17002,1008.5862 402.17005,1012.2798 L 402.17005,1012.4286"
       id="text2160"
       inkscape:export-filename="/home/dyeldandi/svn/temporal.1/pix/rect4300.png"
       inkscape:export-xdpi="22.5"
       inkscape:export-ydpi="22.5" />
    <rect
       style="fill:#000000;fill-opacity:1;fill-rule:nonzero;stroke:none;stroke-width:1;stroke-linecap:square;stroke-linejoin:miter;stroke-miterlimit:4;stroke-dasharray:none;stroke-dashoffset:0;stroke-opacity:1"
       id="rect4252"
       width="8"
       height="8"
       x="208"
       y="984.36218"
       inkscape:export-filename="/home/dyeldandi/svn/temporal.1/pix/rect4300.png"
       inkscape:export-xdpi="22.5"
       inkscape:export-ydpi="22.5" />
    <rect
       style="fill:#000000;fill-opacity:1;fill-rule:nonzero;stroke:none;stroke-width:1;stroke-linecap:square;stroke-linejoin:miter;stroke-miterlimit:4;stroke-dasharray:none;stroke-dashoffset:0;stroke-opacity:1"
       id="rect4262"
       width="8"
       height="8"
       x="208"
       y="994.36218"
       inkscape:export-filename="/home/dyeldandi/svn/temporal.1/pix/rect4300.png"
       inkscape:export-xdpi="22.5"
       inkscape:export-ydpi="22.5" />
    <rect
       style="fill:#000000;fill-opacity:1;fill-rule:nonzero;stroke:none;stroke-width:1;stroke-linecap:square;stroke-linejoin:miter;stroke-miterlimit:4;stroke-dasharray:none;stroke-dashoffset:0;stroke-opacity:1"
       id="rect4264"
       width="8"
       height="8"
       x="208"
       y="1004.3622"
       inkscape:export-filename="/home/dyeldandi/svn/temporal.1/pix/rect4300.png"
       inkscape:export-xdpi="22.5"
       inkscape:export-ydpi="22.5" />
    <rect
       style="fill:#000000;fill-opacity:1;fill-rule:nonzero;stroke:none;stroke-width:1;stroke-linecap:square;stroke-linejoin:miter;stroke-miterlimit:4;stroke-dasharray:none;stroke-dashoffset:0;stroke-opacity:1"
       id="rect4266"
       width="8"
       height="8"
       x="208"
       y="1014.3622"
       inkscape:export-filename="/home/dyeldandi/svn/temporal.1/pix/rect4300.png"
       inkscape:export-xdpi="22.5"
       inkscape:export-ydpi="22.5" />
    <rect
       style="fill:#000000;fill-opacity:1;fill-rule:nonzero;stroke:none;stroke-width:1;stroke-linecap:square;stroke-linejoin:miter;stroke-miterlimit:4;stroke-dasharray:none;stroke-dashoffset:0;stroke-opacity:1"
       id="rect4268"
       width="8"
       height="8"
       x="208"
       y="1024.3622"
       inkscape:export-filename="/home/dyeldandi/svn/temporal.1/pix/rect4300.png"
       inkscape:export-xdpi="22.5"
       inkscape:export-ydpi="22.5" />
    <rect
       style="fill:#000000;fill-opacity:1;fill-rule:nonzero;stroke:none;stroke-width:1;stroke-linecap:square;stroke-linejoin:miter;stroke-miterlimit:4;stroke-dasharray:none;stroke-dashoffset:0;stroke-opacity:1"
       id="rect4270"
       width="8"
       height="8"
       x="208"
       y="1034.3622"
       inkscape:export-filename="/home/dyeldandi/svn/temporal.1/pix/rect4300.png"
       inkscape:export-xdpi="22.5"
       inkscape:export-ydpi="22.5" />
    <rect
       style="fill:#000000;fill-opacity:1;fill-rule:nonzero;stroke:none;stroke-width:1;stroke-linecap:square;stroke-linejoin:miter;stroke-miterlimit:4;stroke-dasharray:none;stroke-dashoffset:0;stroke-opacity:1"
       id="rect4292"
       width="8"
       height="8"
       x="984.36218"
       y="-236"
       transform="matrix(0,1,-1,0,0,0)"
       inkscape:export-filename="/home/dyeldandi/svn/temporal.1/pix/rect4300.png"
       inkscape:export-xdpi="22.5"
       inkscape:export-ydpi="22.5" />
    <rect
       style="fill:#000000;fill-opacity:1;fill-rule:nonzero;stroke:none;stroke-width:1;stroke-linecap:square;stroke-linejoin:miter;stroke-miterlimit:4;stroke-dasharray:none;stroke-dashoffset:0;stroke-opacity:1"
       id="rect4294"
       width="8"
       height="8"
       x="984.36218"
       y="-226"
       transform="matrix(0,1,-1,0,0,0)"
       inkscape:export-filename="/home/dyeldandi/svn/temporal.1/pix/rect4300.png"
       inkscape:export-xdpi="22.5"
       inkscape:export-ydpi="22.5" />
    <rect
       style="fill:#000000;fill-opacity:1;fill-rule:nonzero;stroke:none;stroke-width:1;stroke-linecap:square;stroke-linejoin:miter;stroke-miterlimit:4;stroke-dasharray:none;stroke-dashoffset:0;stroke-opacity:1"
       id="rect4298"
       width="8"
       height="8"
       x="984.36218"
       y="-206"
       transform="matrix(0,1,-1,0,0,0)"
       inkscape:export-filename="/home/dyeldandi/svn/temporal.1/pix/rect4300.png"
       inkscape:export-xdpi="22.5"
       inkscape:export-ydpi="22.5" />
    <rect
       style="fill:#000000;fill-opacity:1;fill-rule:nonzero;stroke:none;stroke-width:1;stroke-linecap:square;stroke-linejoin:miter;stroke-miterlimit:4;stroke-dasharray:none;stroke-dashoffset:0;stroke-opacity:1"
       id="rect4300"
       width="8"
       height="8"
       x="984.36218"
       y="-196"
       transform="matrix(0,1,-1,0,0,0)"
       inkscape:export-xdpi="22.5"
       inkscape:export-ydpi="22.5" />
  </g>
</svg>
